<?xml version="1.0" encoding="UTF-8" standalone="no"?>
<!DOCTYPE svg PUBLIC "-//W3C//DTD SVG 1.1//EN"
 "http://www.w3.org/Graphics/SVG/1.1/DTD/svg11.dtd">
<!-- Generated by graphviz version 2.49.3 (20211023.0002)
 -->
<!-- Title: Tree Pages: 1 -->
<svg width="736pt" height="433pt"
 viewBox="0.00 0.00 736.00 433.00" xmlns="http://www.w3.org/2000/svg" xmlns:xlink="http://www.w3.org/1999/xlink">
<g id="graph0" class="graph" transform="scale(1 1) rotate(0) translate(4 429)">
<title>Tree</title>
<polygon fill="white" stroke="transparent" points="-4,4 -4,-429 732,-429 732,4 -4,4"/>
<!-- 0 -->
<g id="node1" class="node">
<title>0</title>
<path fill="#f9fcfe" stroke="black" d="M304.5,-425C304.5,-425 200.5,-425 200.5,-425 194.5,-425 188.5,-419 188.5,-413 188.5,-413 188.5,-354 188.5,-354 188.5,-348 194.5,-342 200.5,-342 200.5,-342 304.5,-342 304.5,-342 310.5,-342 316.5,-348 316.5,-354 316.5,-354 316.5,-413 316.5,-413 316.5,-419 310.5,-425 304.5,-425"/>
<text text-anchor="start" x="196.5" y="-409.8" font-family="Helvetica,sans-Serif" font-size="14.00">price ≤ 2224353.5</text>
<text text-anchor="start" x="223.5" y="-394.8" font-family="Helvetica,sans-Serif" font-size="14.00">gini = 0.5</text>
<text text-anchor="start" x="206.5" y="-379.8" font-family="Helvetica,sans-Serif" font-size="14.00">samples = 280</text>
<text text-anchor="start" x="196.5" y="-364.8" font-family="Helvetica,sans-Serif" font-size="14.00">value = [138, 142]</text>
<text text-anchor="start" x="224.5" y="-349.8" font-family="Helvetica,sans-Serif" font-size="14.00">class = 1</text>
</g>
<!-- 1 -->
<g id="node2" class="node">
<title>1</title>
<path fill="#f0b78d" stroke="black" d="M239,-306C239,-306 120,-306 120,-306 114,-306 108,-300 108,-294 108,-294 108,-235 108,-235 108,-229 114,-223 120,-223 120,-223 239,-223 239,-223 245,-223 251,-229 251,-235 251,-235 251,-294 251,-294 251,-300 245,-306 239,-306"/>
<text text-anchor="start" x="116" y="-290.8" font-family="Helvetica,sans-Serif" font-size="14.00">price ≤ 1136633.438</text>
<text text-anchor="start" x="143" y="-275.8" font-family="Helvetica,sans-Serif" font-size="14.00">gini = 0.419</text>
<text text-anchor="start" x="133.5" y="-260.8" font-family="Helvetica,sans-Serif" font-size="14.00">samples = 174</text>
<text text-anchor="start" x="127.5" y="-245.8" font-family="Helvetica,sans-Serif" font-size="14.00">value = [122, 52]</text>
<text text-anchor="start" x="151.5" y="-230.8" font-family="Helvetica,sans-Serif" font-size="14.00">class = 0</text>
</g>
<!-- 0&#45;&gt;1 -->
<g id="edge1" class="edge">
<title>0&#45;&gt;1</title>
<path fill="none" stroke="black" d="M227.17,-341.91C221.68,-333.1 215.81,-323.7 210.14,-314.61"/>
<polygon fill="black" stroke="black" points="213.05,-312.65 204.78,-306.02 207.11,-316.36 213.05,-312.65"/>
<text text-anchor="middle" x="199.14" y="-326.68" font-family="Helvetica,sans-Serif" font-size="14.00">True</text>
</g>
<!-- 6 -->
<g id="node7" class="node">
<title>6</title>
<path fill="#5caeea" stroke="black" d="M412,-306C412,-306 323,-306 323,-306 317,-306 311,-300 311,-294 311,-294 311,-235 311,-235 311,-229 317,-223 323,-223 323,-223 412,-223 412,-223 418,-223 424,-229 424,-235 424,-235 424,-294 424,-294 424,-300 418,-306 412,-306"/>
<text text-anchor="start" x="327" y="-290.8" font-family="Helvetica,sans-Serif" font-size="14.00">sqft ≤ 2581.8</text>
<text text-anchor="start" x="331" y="-275.8" font-family="Helvetica,sans-Serif" font-size="14.00">gini = 0.256</text>
<text text-anchor="start" x="321.5" y="-260.8" font-family="Helvetica,sans-Serif" font-size="14.00">samples = 106</text>
<text text-anchor="start" x="319" y="-245.8" font-family="Helvetica,sans-Serif" font-size="14.00">value = [16, 90]</text>
<text text-anchor="start" x="339.5" y="-230.8" font-family="Helvetica,sans-Serif" font-size="14.00">class = 1</text>
</g>
<!-- 0&#45;&gt;6 -->
<g id="edge6" class="edge">
<title>0&#45;&gt;6</title>
<path fill="none" stroke="black" d="M292.4,-341.91C301.5,-332.65 311.25,-322.73 320.61,-313.21"/>
<polygon fill="black" stroke="black" points="323.16,-315.61 327.67,-306.02 318.17,-310.7 323.16,-315.61"/>
<text text-anchor="middle" x="327.89" y="-327.32" font-family="Helvetica,sans-Serif" font-size="14.00">False</text>
</g>
<!-- 2 -->
<g id="node3" class="node">
<title>2</title>
<path fill="#e58139" stroke="black" d="M93,-179.5C93,-179.5 12,-179.5 12,-179.5 6,-179.5 0,-173.5 0,-167.5 0,-167.5 0,-123.5 0,-123.5 0,-117.5 6,-111.5 12,-111.5 12,-111.5 93,-111.5 93,-111.5 99,-111.5 105,-117.5 105,-123.5 105,-123.5 105,-167.5 105,-167.5 105,-173.5 99,-179.5 93,-179.5"/>
<text text-anchor="start" x="23.5" y="-164.3" font-family="Helvetica,sans-Serif" font-size="14.00">gini = 0.0</text>
<text text-anchor="start" x="10.5" y="-149.3" font-family="Helvetica,sans-Serif" font-size="14.00">samples = 27</text>
<text text-anchor="start" x="8" y="-134.3" font-family="Helvetica,sans-Serif" font-size="14.00">value = [27, 0]</text>
<text text-anchor="start" x="24.5" y="-119.3" font-family="Helvetica,sans-Serif" font-size="14.00">class = 0</text>
</g>
<!-- 1&#45;&gt;2 -->
<g id="edge2" class="edge">
<title>1&#45;&gt;2</title>
<path fill="none" stroke="black" d="M135.44,-222.91C122.62,-211.1 108.64,-198.22 95.86,-186.45"/>
<polygon fill="black" stroke="black" points="98.23,-183.87 88.5,-179.67 93.48,-189.02 98.23,-183.87"/>
</g>
<!-- 3 -->
<g id="node4" class="node">
<title>3</title>
<path fill="#f3c6a5" stroke="black" d="M224,-187C224,-187 135,-187 135,-187 129,-187 123,-181 123,-175 123,-175 123,-116 123,-116 123,-110 129,-104 135,-104 135,-104 224,-104 224,-104 230,-104 236,-110 236,-116 236,-116 236,-175 236,-175 236,-181 230,-187 224,-187"/>
<text text-anchor="start" x="131" y="-171.8" font-family="Helvetica,sans-Serif" font-size="14.00">sqft ≤ 1417.067</text>
<text text-anchor="start" x="143" y="-156.8" font-family="Helvetica,sans-Serif" font-size="14.00">gini = 0.457</text>
<text text-anchor="start" x="133.5" y="-141.8" font-family="Helvetica,sans-Serif" font-size="14.00">samples = 147</text>
<text text-anchor="start" x="131" y="-126.8" font-family="Helvetica,sans-Serif" font-size="14.00">value = [95, 52]</text>
<text text-anchor="start" x="151.5" y="-111.8" font-family="Helvetica,sans-Serif" font-size="14.00">class = 0</text>
</g>
<!-- 1&#45;&gt;3 -->
<g id="edge3" class="edge">
<title>1&#45;&gt;3</title>
<path fill="none" stroke="black" d="M179.5,-222.91C179.5,-214.65 179.5,-205.86 179.5,-197.3"/>
<polygon fill="black" stroke="black" points="183,-197.02 179.5,-187.02 176,-197.02 183,-197.02"/>
</g>
<!-- 4 -->
<g id="node5" class="node">
<title>4</title>
<path fill="#6ab6ec" stroke="black" d="M93,-68C93,-68 12,-68 12,-68 6,-68 0,-62 0,-56 0,-56 0,-12 0,-12 0,-6 6,0 12,0 12,0 93,0 93,0 99,0 105,-6 105,-12 105,-12 105,-56 105,-56 105,-62 99,-68 93,-68"/>
<text text-anchor="start" x="20" y="-52.8" font-family="Helvetica,sans-Serif" font-size="14.00">gini = 0.32</text>
<text text-anchor="start" x="10.5" y="-37.8" font-family="Helvetica,sans-Serif" font-size="14.00">samples = 15</text>
<text text-anchor="start" x="8" y="-22.8" font-family="Helvetica,sans-Serif" font-size="14.00">value = [3, 12]</text>
<text text-anchor="start" x="24.5" y="-7.8" font-family="Helvetica,sans-Serif" font-size="14.00">class = 1</text>
</g>
<!-- 3&#45;&gt;4 -->
<g id="edge4" class="edge">
<title>3&#45;&gt;4</title>
<path fill="none" stroke="black" d="M132.21,-103.73C121.31,-94.33 109.74,-84.35 98.88,-74.99"/>
<polygon fill="black" stroke="black" points="100.98,-72.18 91.12,-68.3 96.41,-77.48 100.98,-72.18"/>
</g>
<!-- 5 -->
<g id="node6" class="node">
<title>5</title>
<path fill="#f0b88f" stroke="black" d="M224,-68C224,-68 135,-68 135,-68 129,-68 123,-62 123,-56 123,-56 123,-12 123,-12 123,-6 129,0 135,0 135,0 224,0 224,0 230,0 236,-6 236,-12 236,-12 236,-56 236,-56 236,-62 230,-68 224,-68"/>
<text text-anchor="start" x="143" y="-52.8" font-family="Helvetica,sans-Serif" font-size="14.00">gini = 0.422</text>
<text text-anchor="start" x="133.5" y="-37.8" font-family="Helvetica,sans-Serif" font-size="14.00">samples = 132</text>
<text text-anchor="start" x="131" y="-22.8" font-family="Helvetica,sans-Serif" font-size="14.00">value = [92, 40]</text>
<text text-anchor="start" x="151.5" y="-7.8" font-family="Helvetica,sans-Serif" font-size="14.00">class = 0</text>
</g>
<!-- 3&#45;&gt;5 -->
<g id="edge5" class="edge">
<title>3&#45;&gt;5</title>
<path fill="none" stroke="black" d="M179.5,-103.73C179.5,-95.52 179.5,-86.86 179.5,-78.56"/>
<polygon fill="black" stroke="black" points="183,-78.3 179.5,-68.3 176,-78.3 183,-78.3"/>
</g>
<!-- 7 -->
<g id="node8" class="node">
<title>7</title>
<path fill="#3ea0e6" stroke="black" d="M412,-187C412,-187 323,-187 323,-187 317,-187 311,-181 311,-175 311,-175 311,-116 311,-116 311,-110 317,-104 323,-104 323,-104 412,-104 412,-104 418,-104 424,-110 424,-116 424,-116 424,-175 424,-175 424,-181 418,-187 412,-187"/>
<text text-anchor="start" x="319" y="-171.8" font-family="Helvetica,sans-Serif" font-size="14.00">sqft ≤ 2391.174</text>
<text text-anchor="start" x="331" y="-156.8" font-family="Helvetica,sans-Serif" font-size="14.00">gini = 0.051</text>
<text text-anchor="start" x="325.5" y="-141.8" font-family="Helvetica,sans-Serif" font-size="14.00">samples = 76</text>
<text text-anchor="start" x="323" y="-126.8" font-family="Helvetica,sans-Serif" font-size="14.00">value = [2, 74]</text>
<text text-anchor="start" x="339.5" y="-111.8" font-family="Helvetica,sans-Serif" font-size="14.00">class = 1</text>
</g>
<!-- 6&#45;&gt;7 -->
<g id="edge7" class="edge">
<title>6&#45;&gt;7</title>
<path fill="none" stroke="black" d="M367.5,-222.91C367.5,-214.65 367.5,-205.86 367.5,-197.3"/>
<polygon fill="black" stroke="black" points="371,-197.02 367.5,-187.02 364,-197.02 371,-197.02"/>
</g>
<!-- 10 -->
<g id="node11" class="node">
<title>10</title>
<path fill="#e6f3fc" stroke="black" d="M608.5,-187C608.5,-187 496.5,-187 496.5,-187 490.5,-187 484.5,-181 484.5,-175 484.5,-175 484.5,-116 484.5,-116 484.5,-110 490.5,-104 496.5,-104 496.5,-104 608.5,-104 608.5,-104 614.5,-104 620.5,-110 620.5,-116 620.5,-116 620.5,-175 620.5,-175 620.5,-181 614.5,-187 608.5,-187"/>
<text text-anchor="start" x="492.5" y="-171.8" font-family="Helvetica,sans-Serif" font-size="14.00">price ≤ 3006784.75</text>
<text text-anchor="start" x="516" y="-156.8" font-family="Helvetica,sans-Serif" font-size="14.00">gini = 0.498</text>
<text text-anchor="start" x="510.5" y="-141.8" font-family="Helvetica,sans-Serif" font-size="14.00">samples = 30</text>
<text text-anchor="start" x="504" y="-126.8" font-family="Helvetica,sans-Serif" font-size="14.00">value = [14, 16]</text>
<text text-anchor="start" x="524.5" y="-111.8" font-family="Helvetica,sans-Serif" font-size="14.00">class = 1</text>
</g>
<!-- 6&#45;&gt;10 -->
<g id="edge10" class="edge">
<title>6&#45;&gt;10</title>
<path fill="none" stroke="black" d="M424.01,-227.76C441.53,-216.68 461.09,-204.31 479.56,-192.63"/>
<polygon fill="black" stroke="black" points="481.67,-195.44 488.25,-187.14 477.92,-189.52 481.67,-195.44"/>
</g>
<!-- 8 -->
<g id="node9" class="node">
<title>8</title>
<path fill="#399de5" stroke="black" d="M347,-68C347,-68 266,-68 266,-68 260,-68 254,-62 254,-56 254,-56 254,-12 254,-12 254,-6 260,0 266,0 266,0 347,0 347,0 353,0 359,-6 359,-12 359,-12 359,-56 359,-56 359,-62 353,-68 347,-68"/>
<text text-anchor="start" x="277.5" y="-52.8" font-family="Helvetica,sans-Serif" font-size="14.00">gini = 0.0</text>
<text text-anchor="start" x="264.5" y="-37.8" font-family="Helvetica,sans-Serif" font-size="14.00">samples = 64</text>
<text text-anchor="start" x="262" y="-22.8" font-family="Helvetica,sans-Serif" font-size="14.00">value = [0, 64]</text>
<text text-anchor="start" x="278.5" y="-7.8" font-family="Helvetica,sans-Serif" font-size="14.00">class = 1</text>
</g>
<!-- 7&#45;&gt;8 -->
<g id="edge8" class="edge">
<title>7&#45;&gt;8</title>
<path fill="none" stroke="black" d="M344.79,-103.73C339.96,-95.06 334.85,-85.9 330,-77.18"/>
<polygon fill="black" stroke="black" points="332.97,-75.33 325.05,-68.3 326.86,-78.74 332.97,-75.33"/>
</g>
<!-- 9 -->
<g id="node10" class="node">
<title>9</title>
<path fill="#61b1ea" stroke="black" d="M470,-68C470,-68 389,-68 389,-68 383,-68 377,-62 377,-56 377,-56 377,-12 377,-12 377,-6 383,0 389,0 389,0 470,0 470,0 476,0 482,-6 482,-12 482,-12 482,-56 482,-56 482,-62 476,-68 470,-68"/>
<text text-anchor="start" x="393" y="-52.8" font-family="Helvetica,sans-Serif" font-size="14.00">gini = 0.278</text>
<text text-anchor="start" x="387.5" y="-37.8" font-family="Helvetica,sans-Serif" font-size="14.00">samples = 12</text>
<text text-anchor="start" x="385" y="-22.8" font-family="Helvetica,sans-Serif" font-size="14.00">value = [2, 10]</text>
<text text-anchor="start" x="401.5" y="-7.8" font-family="Helvetica,sans-Serif" font-size="14.00">class = 1</text>
</g>
<!-- 7&#45;&gt;9 -->
<g id="edge9" class="edge">
<title>7&#45;&gt;9</title>
<path fill="none" stroke="black" d="M390.59,-103.73C395.49,-95.06 400.68,-85.9 405.62,-77.18"/>
<polygon fill="black" stroke="black" points="408.76,-78.73 410.65,-68.3 402.67,-75.28 408.76,-78.73"/>
</g>
<!-- 11 -->
<g id="node12" class="node">
<title>11</title>
<path fill="#f0b78e" stroke="black" d="M593,-68C593,-68 512,-68 512,-68 506,-68 500,-62 500,-56 500,-56 500,-12 500,-12 500,-6 506,0 512,0 512,0 593,0 593,0 599,0 605,-6 605,-12 605,-12 605,-56 605,-56 605,-62 599,-68 593,-68"/>
<text text-anchor="start" x="520" y="-52.8" font-family="Helvetica,sans-Serif" font-size="14.00">gini = 0.42</text>
<text text-anchor="start" x="510.5" y="-37.8" font-family="Helvetica,sans-Serif" font-size="14.00">samples = 20</text>
<text text-anchor="start" x="508" y="-22.8" font-family="Helvetica,sans-Serif" font-size="14.00">value = [14, 6]</text>
<text text-anchor="start" x="524.5" y="-7.8" font-family="Helvetica,sans-Serif" font-size="14.00">class = 0</text>
</g>
<!-- 10&#45;&gt;11 -->
<g id="edge11" class="edge">
<title>10&#45;&gt;11</title>
<path fill="none" stroke="black" d="M552.5,-103.73C552.5,-95.52 552.5,-86.86 552.5,-78.56"/>
<polygon fill="black" stroke="black" points="556,-78.3 552.5,-68.3 549,-78.3 556,-78.3"/>
</g>
<!-- 12 -->
<g id="node13" class="node">
<title>12</title>
<path fill="#399de5" stroke="black" d="M716,-68C716,-68 635,-68 635,-68 629,-68 623,-62 623,-56 623,-56 623,-12 623,-12 623,-6 629,0 635,0 635,0 716,0 716,0 722,0 728,-6 728,-12 728,-12 728,-56 728,-56 728,-62 722,-68 716,-68"/>
<text text-anchor="start" x="646.5" y="-52.8" font-family="Helvetica,sans-Serif" font-size="14.00">gini = 0.0</text>
<text text-anchor="start" x="633.5" y="-37.8" font-family="Helvetica,sans-Serif" font-size="14.00">samples = 10</text>
<text text-anchor="start" x="631" y="-22.8" font-family="Helvetica,sans-Serif" font-size="14.00">value = [0, 10]</text>
<text text-anchor="start" x="647.5" y="-7.8" font-family="Helvetica,sans-Serif" font-size="14.00">class = 1</text>
</g>
<!-- 10&#45;&gt;12 -->
<g id="edge12" class="edge">
<title>10&#45;&gt;12</title>
<path fill="none" stroke="black" d="M598.3,-103.73C608.85,-94.33 620.07,-84.35 630.58,-74.99"/>
<polygon fill="black" stroke="black" points="632.95,-77.56 638.09,-68.3 628.3,-72.33 632.95,-77.56"/>
</g>
</g>
</svg>
