<?xml version="1.0" encoding="UTF-8" standalone="no"?>
<!DOCTYPE svg PUBLIC "-//W3C//DTD SVG 1.1//EN"
 "http://www.w3.org/Graphics/SVG/1.1/DTD/svg11.dtd">
<!-- Generated by graphviz version 2.49.3 (20211023.0002)
 -->
<!-- Title: Tree Pages: 1 -->
<svg width="571pt" height="433pt"
 viewBox="0.00 0.00 571.00 433.00" xmlns="http://www.w3.org/2000/svg" xmlns:xlink="http://www.w3.org/1999/xlink">
<g id="graph0" class="graph" transform="scale(1 1) rotate(0) translate(4 429)">
<title>Tree</title>
<polygon fill="white" stroke="transparent" points="-4,4 -4,-429 567,-429 567,4 -4,4"/>
<!-- 0 -->
<g id="node1" class="node">
<title>0</title>
<path fill="#f9fcfe" stroke="black" d="M299.5,-425C299.5,-425 195.5,-425 195.5,-425 189.5,-425 183.5,-419 183.5,-413 183.5,-413 183.5,-354 183.5,-354 183.5,-348 189.5,-342 195.5,-342 195.5,-342 299.5,-342 299.5,-342 305.5,-342 311.5,-348 311.5,-354 311.5,-354 311.5,-413 311.5,-413 311.5,-419 305.5,-425 299.5,-425"/>
<text text-anchor="start" x="191.5" y="-409.8" font-family="Helvetica,sans-Serif" font-size="14.00">price ≤ 2369351.5</text>
<text text-anchor="start" x="218.5" y="-394.8" font-family="Helvetica,sans-Serif" font-size="14.00">gini = 0.5</text>
<text text-anchor="start" x="201.5" y="-379.8" font-family="Helvetica,sans-Serif" font-size="14.00">samples = 280</text>
<text text-anchor="start" x="191.5" y="-364.8" font-family="Helvetica,sans-Serif" font-size="14.00">value = [138, 142]</text>
<text text-anchor="start" x="219.5" y="-349.8" font-family="Helvetica,sans-Serif" font-size="14.00">class = 1</text>
</g>
<!-- 1 -->
<g id="node2" class="node">
<title>1</title>
<path fill="#f1bc95" stroke="black" d="M234.5,-306C234.5,-306 114.5,-306 114.5,-306 108.5,-306 102.5,-300 102.5,-294 102.5,-294 102.5,-235 102.5,-235 102.5,-229 108.5,-223 114.5,-223 114.5,-223 234.5,-223 234.5,-223 240.5,-223 246.5,-229 246.5,-235 246.5,-235 246.5,-294 246.5,-294 246.5,-300 240.5,-306 234.5,-306"/>
<text text-anchor="start" x="110.5" y="-290.8" font-family="Helvetica,sans-Serif" font-size="14.00">price ≤ 1227663.875</text>
<text text-anchor="start" x="138" y="-275.8" font-family="Helvetica,sans-Serif" font-size="14.00">gini = 0.434</text>
<text text-anchor="start" x="128.5" y="-260.8" font-family="Helvetica,sans-Serif" font-size="14.00">samples = 195</text>
<text text-anchor="start" x="122.5" y="-245.8" font-family="Helvetica,sans-Serif" font-size="14.00">value = [133, 62]</text>
<text text-anchor="start" x="146.5" y="-230.8" font-family="Helvetica,sans-Serif" font-size="14.00">class = 0</text>
</g>
<!-- 0&#45;&gt;1 -->
<g id="edge1" class="edge">
<title>0&#45;&gt;1</title>
<path fill="none" stroke="black" d="M222.17,-341.91C216.68,-333.1 210.81,-323.7 205.14,-314.61"/>
<polygon fill="black" stroke="black" points="208.05,-312.65 199.78,-306.02 202.11,-316.36 208.05,-312.65"/>
<text text-anchor="middle" x="194.14" y="-326.68" font-family="Helvetica,sans-Serif" font-size="14.00">True</text>
</g>
<!-- 6 -->
<g id="node7" class="node">
<title>6</title>
<path fill="#45a3e7" stroke="black" d="M366,-306C366,-306 277,-306 277,-306 271,-306 265,-300 265,-294 265,-294 265,-235 265,-235 265,-229 271,-223 277,-223 277,-223 366,-223 366,-223 372,-223 378,-229 378,-235 378,-235 378,-294 378,-294 378,-300 372,-306 366,-306"/>
<text text-anchor="start" x="273" y="-290.8" font-family="Helvetica,sans-Serif" font-size="14.00">sqft ≤ 2619.704</text>
<text text-anchor="start" x="286" y="-275.8" font-family="Helvetica,sans-Serif" font-size="14.00">gini = 0.111</text>
<text text-anchor="start" x="279.5" y="-260.8" font-family="Helvetica,sans-Serif" font-size="14.00">samples = 85</text>
<text text-anchor="start" x="277" y="-245.8" font-family="Helvetica,sans-Serif" font-size="14.00">value = [5, 80]</text>
<text text-anchor="start" x="293.5" y="-230.8" font-family="Helvetica,sans-Serif" font-size="14.00">class = 1</text>
</g>
<!-- 0&#45;&gt;6 -->
<g id="edge6" class="edge">
<title>0&#45;&gt;6</title>
<path fill="none" stroke="black" d="M273.17,-341.91C278.74,-333.1 284.69,-323.7 290.44,-314.61"/>
<polygon fill="black" stroke="black" points="293.48,-316.34 295.87,-306.02 287.57,-312.6 293.48,-316.34"/>
<text text-anchor="middle" x="301.36" y="-326.71" font-family="Helvetica,sans-Serif" font-size="14.00">False</text>
</g>
<!-- 2 -->
<g id="node3" class="node">
<title>2</title>
<path fill="#e58139" stroke="black" d="M93,-179.5C93,-179.5 12,-179.5 12,-179.5 6,-179.5 0,-173.5 0,-167.5 0,-167.5 0,-123.5 0,-123.5 0,-117.5 6,-111.5 12,-111.5 12,-111.5 93,-111.5 93,-111.5 99,-111.5 105,-117.5 105,-123.5 105,-123.5 105,-167.5 105,-167.5 105,-173.5 99,-179.5 93,-179.5"/>
<text text-anchor="start" x="23.5" y="-164.3" font-family="Helvetica,sans-Serif" font-size="14.00">gini = 0.0</text>
<text text-anchor="start" x="10.5" y="-149.3" font-family="Helvetica,sans-Serif" font-size="14.00">samples = 38</text>
<text text-anchor="start" x="8" y="-134.3" font-family="Helvetica,sans-Serif" font-size="14.00">value = [38, 0]</text>
<text text-anchor="start" x="24.5" y="-119.3" font-family="Helvetica,sans-Serif" font-size="14.00">class = 0</text>
</g>
<!-- 1&#45;&gt;2 -->
<g id="edge2" class="edge">
<title>1&#45;&gt;2</title>
<path fill="none" stroke="black" d="M132.17,-222.91C119.98,-211.21 106.68,-198.46 94.5,-186.78"/>
<polygon fill="black" stroke="black" points="96.72,-184.06 87.08,-179.67 91.88,-189.11 96.72,-184.06"/>
</g>
<!-- 3 -->
<g id="node4" class="node">
<title>3</title>
<path fill="#f6d3ba" stroke="black" d="M224,-187C224,-187 135,-187 135,-187 129,-187 123,-181 123,-175 123,-175 123,-116 123,-116 123,-110 129,-104 135,-104 135,-104 224,-104 224,-104 230,-104 236,-110 236,-116 236,-116 236,-175 236,-175 236,-181 230,-187 224,-187"/>
<text text-anchor="start" x="131" y="-171.8" font-family="Helvetica,sans-Serif" font-size="14.00">sqft ≤ 1389.342</text>
<text text-anchor="start" x="143" y="-156.8" font-family="Helvetica,sans-Serif" font-size="14.00">gini = 0.478</text>
<text text-anchor="start" x="133.5" y="-141.8" font-family="Helvetica,sans-Serif" font-size="14.00">samples = 157</text>
<text text-anchor="start" x="131" y="-126.8" font-family="Helvetica,sans-Serif" font-size="14.00">value = [95, 62]</text>
<text text-anchor="start" x="151.5" y="-111.8" font-family="Helvetica,sans-Serif" font-size="14.00">class = 0</text>
</g>
<!-- 1&#45;&gt;3 -->
<g id="edge3" class="edge">
<title>1&#45;&gt;3</title>
<path fill="none" stroke="black" d="M176.23,-222.91C176.59,-214.56 176.97,-205.67 177.34,-197.02"/>
<polygon fill="black" stroke="black" points="180.84,-197.16 177.77,-187.02 173.84,-196.86 180.84,-197.16"/>
</g>
<!-- 4 -->
<g id="node5" class="node">
<title>4</title>
<path fill="#399de5" stroke="black" d="M168,-68C168,-68 87,-68 87,-68 81,-68 75,-62 75,-56 75,-56 75,-12 75,-12 75,-6 81,0 87,0 87,0 168,0 168,0 174,0 180,-6 180,-12 180,-12 180,-56 180,-56 180,-62 174,-68 168,-68"/>
<text text-anchor="start" x="98.5" y="-52.8" font-family="Helvetica,sans-Serif" font-size="14.00">gini = 0.0</text>
<text text-anchor="start" x="85.5" y="-37.8" font-family="Helvetica,sans-Serif" font-size="14.00">samples = 12</text>
<text text-anchor="start" x="83" y="-22.8" font-family="Helvetica,sans-Serif" font-size="14.00">value = [0, 12]</text>
<text text-anchor="start" x="99.5" y="-7.8" font-family="Helvetica,sans-Serif" font-size="14.00">class = 1</text>
</g>
<!-- 3&#45;&gt;4 -->
<g id="edge4" class="edge">
<title>3&#45;&gt;4</title>
<path fill="none" stroke="black" d="M160.14,-103.73C156.07,-95.15 151.76,-86.09 147.66,-77.46"/>
<polygon fill="black" stroke="black" points="150.76,-75.83 143.31,-68.3 144.44,-78.83 150.76,-75.83"/>
</g>
<!-- 5 -->
<g id="node6" class="node">
<title>5</title>
<path fill="#f3c3a1" stroke="black" d="M299,-68C299,-68 210,-68 210,-68 204,-68 198,-62 198,-56 198,-56 198,-12 198,-12 198,-6 204,0 210,0 210,0 299,0 299,0 305,0 311,-6 311,-12 311,-12 311,-56 311,-56 311,-62 305,-68 299,-68"/>
<text text-anchor="start" x="218" y="-52.8" font-family="Helvetica,sans-Serif" font-size="14.00">gini = 0.452</text>
<text text-anchor="start" x="208.5" y="-37.8" font-family="Helvetica,sans-Serif" font-size="14.00">samples = 145</text>
<text text-anchor="start" x="206" y="-22.8" font-family="Helvetica,sans-Serif" font-size="14.00">value = [95, 50]</text>
<text text-anchor="start" x="226.5" y="-7.8" font-family="Helvetica,sans-Serif" font-size="14.00">class = 0</text>
</g>
<!-- 3&#45;&gt;5 -->
<g id="edge5" class="edge">
<title>3&#45;&gt;5</title>
<path fill="none" stroke="black" d="M207.43,-103.73C213.49,-94.88 219.9,-85.51 225.99,-76.63"/>
<polygon fill="black" stroke="black" points="228.93,-78.53 231.69,-68.3 223.15,-74.57 228.93,-78.53"/>
</g>
<!-- 7 -->
<g id="node8" class="node">
<title>7</title>
<path fill="#399de5" stroke="black" d="M357,-179.5C357,-179.5 276,-179.5 276,-179.5 270,-179.5 264,-173.5 264,-167.5 264,-167.5 264,-123.5 264,-123.5 264,-117.5 270,-111.5 276,-111.5 276,-111.5 357,-111.5 357,-111.5 363,-111.5 369,-117.5 369,-123.5 369,-123.5 369,-167.5 369,-167.5 369,-173.5 363,-179.5 357,-179.5"/>
<text text-anchor="start" x="287.5" y="-164.3" font-family="Helvetica,sans-Serif" font-size="14.00">gini = 0.0</text>
<text text-anchor="start" x="274.5" y="-149.3" font-family="Helvetica,sans-Serif" font-size="14.00">samples = 66</text>
<text text-anchor="start" x="272" y="-134.3" font-family="Helvetica,sans-Serif" font-size="14.00">value = [0, 66]</text>
<text text-anchor="start" x="288.5" y="-119.3" font-family="Helvetica,sans-Serif" font-size="14.00">class = 1</text>
</g>
<!-- 6&#45;&gt;7 -->
<g id="edge7" class="edge">
<title>6&#45;&gt;7</title>
<path fill="none" stroke="black" d="M319.77,-222.91C319.31,-212.2 318.81,-200.62 318.35,-189.78"/>
<polygon fill="black" stroke="black" points="321.84,-189.51 317.92,-179.67 314.85,-189.81 321.84,-189.51"/>
</g>
<!-- 8 -->
<g id="node9" class="node">
<title>8</title>
<path fill="#80c0ee" stroke="black" d="M519.5,-187C519.5,-187 399.5,-187 399.5,-187 393.5,-187 387.5,-181 387.5,-175 387.5,-175 387.5,-116 387.5,-116 387.5,-110 393.5,-104 399.5,-104 399.5,-104 519.5,-104 519.5,-104 525.5,-104 531.5,-110 531.5,-116 531.5,-116 531.5,-175 531.5,-175 531.5,-181 525.5,-187 519.5,-187"/>
<text text-anchor="start" x="395.5" y="-171.8" font-family="Helvetica,sans-Serif" font-size="14.00">price ≤ 2809464.125</text>
<text text-anchor="start" x="423" y="-156.8" font-family="Helvetica,sans-Serif" font-size="14.00">gini = 0.388</text>
<text text-anchor="start" x="417.5" y="-141.8" font-family="Helvetica,sans-Serif" font-size="14.00">samples = 19</text>
<text text-anchor="start" x="415" y="-126.8" font-family="Helvetica,sans-Serif" font-size="14.00">value = [5, 14]</text>
<text text-anchor="start" x="431.5" y="-111.8" font-family="Helvetica,sans-Serif" font-size="14.00">class = 1</text>
</g>
<!-- 6&#45;&gt;8 -->
<g id="edge8" class="edge">
<title>6&#45;&gt;8</title>
<path fill="none" stroke="black" d="M369.38,-222.91C380.51,-213.47 392.45,-203.34 403.89,-193.65"/>
<polygon fill="black" stroke="black" points="406.34,-196.16 411.71,-187.02 401.82,-190.82 406.34,-196.16"/>
</g>
<!-- 9 -->
<g id="node10" class="node">
<title>9</title>
<path fill="#efb388" stroke="black" d="M428,-68C428,-68 355,-68 355,-68 349,-68 343,-62 343,-56 343,-56 343,-12 343,-12 343,-6 349,0 355,0 355,0 428,0 428,0 434,0 440,-6 440,-12 440,-12 440,-56 440,-56 440,-62 434,-68 428,-68"/>
<text text-anchor="start" x="355" y="-52.8" font-family="Helvetica,sans-Serif" font-size="14.00">gini = 0.408</text>
<text text-anchor="start" x="353.5" y="-37.8" font-family="Helvetica,sans-Serif" font-size="14.00">samples = 7</text>
<text text-anchor="start" x="351" y="-22.8" font-family="Helvetica,sans-Serif" font-size="14.00">value = [5, 2]</text>
<text text-anchor="start" x="363.5" y="-7.8" font-family="Helvetica,sans-Serif" font-size="14.00">class = 0</text>
</g>
<!-- 8&#45;&gt;9 -->
<g id="edge9" class="edge">
<title>8&#45;&gt;9</title>
<path fill="none" stroke="black" d="M434.18,-103.73C428.74,-94.97 422.99,-85.7 417.52,-76.91"/>
<polygon fill="black" stroke="black" points="420.43,-74.95 412.18,-68.3 414.48,-78.64 420.43,-74.95"/>
</g>
<!-- 10 -->
<g id="node11" class="node">
<title>10</title>
<path fill="#399de5" stroke="black" d="M551,-68C551,-68 470,-68 470,-68 464,-68 458,-62 458,-56 458,-56 458,-12 458,-12 458,-6 464,0 470,0 470,0 551,0 551,0 557,0 563,-6 563,-12 563,-12 563,-56 563,-56 563,-62 557,-68 551,-68"/>
<text text-anchor="start" x="481.5" y="-52.8" font-family="Helvetica,sans-Serif" font-size="14.00">gini = 0.0</text>
<text text-anchor="start" x="468.5" y="-37.8" font-family="Helvetica,sans-Serif" font-size="14.00">samples = 12</text>
<text text-anchor="start" x="466" y="-22.8" font-family="Helvetica,sans-Serif" font-size="14.00">value = [0, 12]</text>
<text text-anchor="start" x="482.5" y="-7.8" font-family="Helvetica,sans-Serif" font-size="14.00">class = 1</text>
</g>
<!-- 8&#45;&gt;10 -->
<g id="edge10" class="edge">
<title>8&#45;&gt;10</title>
<path fill="none" stroke="black" d="M478.49,-103.73C482.48,-95.15 486.71,-86.09 490.73,-77.46"/>
<polygon fill="black" stroke="black" points="493.94,-78.84 494.99,-68.3 487.6,-75.89 493.94,-78.84"/>
</g>
</g>
</svg>
